<svg xmlns="http://www.w3.org/2000/svg" viewBox="0 0 800 500" width="100%" height="100%">
  <defs>
    <linearGradient id="bg" x1="0%" y1="0%" x2="100%" y2="100%">
      <stop offset="0%" stop-color="#0b0f19" />
      <stop offset="100%" stop-color="#1e1b4b" />
    </linearGradient>
  </defs>

  <rect width="800" height="500" fill="url(#bg)" />

  <rect x="40" y="40" width="720" height="420" rx="16" fill="#111827" stroke="#312e81" stroke-width="2" />
  <path d="M 40 56 C 40 47, 47 40, 56 40 L 744 40 C 753 40, 760 47, 760 56 L 760 85 L 40 85 Z" fill="#0f172a" />
  <circle cx="70" cy="62" r="6" fill="#ef4444" />
  <circle cx="90" cy="62" r="6" fill="#f59e0b" />
  <circle cx="110" cy="62" r="6" fill="#10b981" />
  <text x="400" y="67" font-family="sans-serif" font-size="14" font-weight="bold" fill="#94a3b8" text-anchor="middle">Employee Hiring &amp; Recruitment Kanban Pipeline</text>

  {/* Kanban Pipeline Columns */}
  <g transform="translate(60, 105)">
    {/* Applied Column */}
    <rect x="0" y="0" width="200" height="320" rx="12" fill="#0b0f19" stroke="#1f293d" stroke-width="1" />
    <rect x="15" y="15" width="170" height="28" rx="6" fill="#1e293b" />
    <text x="30" y="34" font-family="sans-serif" font-size="12" font-weight="bold" fill="#ffffff">Applied (24)</text>

    <rect x="15" y="55" width="170" height="75" rx="8" fill="#1e293b" />
    <text x="25" y="75" font-family="sans-serif" font-size="12" font-weight="bold" fill="#ffffff">Abebe Tech</text>
    <text x="25" y="93" font-family="sans-serif" font-size="10" fill="#94a3b8">Senior React Dev</text>
    <text x="25" y="113" font-family="sans-serif" font-size="10" font-weight="bold" fill="#38bdf8">Match 94%</text>

    <rect x="15" y="140" width="170" height="75" rx="8" fill="#1e293b" />
    <text x="25" y="160" font-family="sans-serif" font-size="12" font-weight="bold" fill="#ffffff">Sara Bekele</text>
    <text x="25" y="178" font-family="sans-serif" font-size="10" fill="#94a3b8">Full-Stack Engineer</text>
    <text x="25" y="198" font-family="sans-serif" font-size="10" font-weight="bold" fill="#38bdf8">Match 88%</text>
  </g>

  <g transform="translate(280, 105)">
    {/* Interview Column */}
    <rect x="0" y="0" width="200" height="320" rx="12" fill="#0b0f19" stroke="#312e81" stroke-width="1" />
    <rect x="15" y="15" width="170" height="28" rx="6" fill="#312e81" />
    <text x="30" y="34" font-family="sans-serif" font-size="12" font-weight="bold" fill="#ffffff">Interviewing (8)</text>

    <rect x="15" y="55" width="170" height="75" rx="8" fill="#1e293b" border="#4f46e5" stroke="#4f46e5" stroke-width="1" />
    <text x="25" y="75" font-family="sans-serif" font-size="12" font-weight="bold" fill="#ffffff">Daniel Tadesse</text>
    <text x="25" y="93" font-family="sans-serif" font-size="10" fill="#94a3b8">Backend Engineer</text>
    <text x="25" y="113" font-family="sans-serif" font-size="10" font-weight="bold" fill="#818cf8">Technical Stage 2</text>
  </g>

  <g transform="translate(500, 105)">
    {/* Offered / Hired Column */}
    <rect x="0" y="0" width="200" height="320" rx="12" fill="#0b0f19" stroke="#065f46" stroke-width="1" />
    <rect x="15" y="15" width="170" height="28" rx="6" fill="#065f46" />
    <text x="30" y="34" font-family="sans-serif" font-size="12" font-weight="bold" fill="#ffffff">Hired (5)</text>

    <rect x="15" y="55" width="170" height="75" rx="8" fill="#1e293b" stroke="#10b981" stroke-width="1" />
    <text x="25" y="75" font-family="sans-serif" font-size="12" font-weight="bold" fill="#ffffff">Meron Haile</text>
    <text x="25" y="93" font-family="sans-serif" font-size="10" fill="#94a3b8">Lead DevOps</text>
    <text x="25" y="113" font-family="sans-serif" font-size="10" font-weight="bold" fill="#34d399">Offer Accepted</text>
  </g>
</svg>
